<svg width="647" height="42" viewBox="0 0 647 42" fill="none" xmlns="http://www.w3.org/2000/svg">
<path d="M31.7995 0L28.7285 1.313C28.7285 1.313 25.2695 2.169 23.4055 2.169C22.9455 2.169 22.4775 2.143 22.0055 2.099C21.0655 2.007 20.0585 2.083 19.0005 2.083C18.4795 2.083 17.4895 2.183 17.4895 2.183C17.4895 2.183 12.0725 5.759 10.0775 9.375C9.79249 10.537 10.3855 13.097 10.3855 13.097C10.3855 13.097 11.3585 15.469 10.8415 16.546C10.3365 17.601 9.00049 19.523 9.00049 19.523C9.00049 19.523 9.08849 22.552 9.40749 24.098C9.70849 25.552 9.22449 27.813 9.22449 27.813C9.22449 27.813 10.1185 29.548 12.4855 29.998C13.2505 30.142 35.9795 22.924 35.8275 21.567C35.6755 20.206 34.8655 0.815 32.7585 0.243C32.4465 0.07 31.7995 0 31.7995 0Z" fill="#FFD54F"/>
<path d="M41.3465 15.812L42.0005 13.307L41.3155 11.617L40.5505 10.728L40.9745 8.729L38.7705 6.371C38.7705 6.371 36.9595 5.19 37.1035 3.792C37.3735 1.184 32.9975 0.118 32.9975 0.118C32.9975 0.118 31.9665 0.041 31.7995 0C33.6605 1.026 34.2495 6.345 34.2495 6.345L34.1255 8.5L34.3485 10.599C34.5025 10.636 33.8405 13.55 34.1275 15.262C34.4065 16.925 32.9515 18.944 32.9515 18.944C32.9515 18.944 25.9925 21.563 26.0075 23.194C26.0155 24.076 26.2965 24.426 25.7145 25.153C25.2615 25.717 23.6945 26.57 23.6945 26.57L22.3325 25.994L20.5785 26.337C20.5785 26.337 20.4615 26.394 20.2595 26.488C19.5795 25.439 19.0305 24.47 18.9005 24.07C18.9505 21.72 15.6805 20.449 13.6105 20.129L13.1605 20.059L12.7505 20.249C11.5605 20.809 10.0005 21.71 9.66047 21.71C9.53047 21.7 9.34047 21.66 9.15047 21.62C9.14047 21.62 9.12047 21.62 9.11047 21.61C9.18047 22.47 9.27047 23.42 9.41047 24.1C9.45047 24.29 9.48047 24.49 9.49047 24.7C9.53047 24.71 9.57047 24.71 9.61047 24.71C10.6905 24.71 12.5105 23.98 13.4605 23.56C14.4605 23.75 15.4805 24.09 15.8905 24.36C15.9505 24.839 16.2405 25.739 17.4475 27.675C15.0725 28.582 12.0135 29.488 10.7585 28.728C10.1045 28.333 9.68947 27.88 9.31647 27.316C9.28647 27.5 9.25547 27.607 9.22847 27.813C8.92447 30.156 10.1185 31.491 12.4855 31.941C13.2505 32.085 14.8145 32.358 14.8145 32.358L16.9795 32.701L18.3755 33.992L18.7905 34L19.1125 33.937L21.4805 33.47L26.7465 32.432L28.9985 32H34.0835C34.0835 32 37.1605 30.322 37.9595 28.924C38.8425 27.389 41.7375 25.532 41.7375 25.532L42.0005 21.61C42.0005 21.61 41.4485 19.658 40.8555 18.496C40.1705 17.165 41.3465 15.812 41.3465 15.812Z" fill="#F9A825"/>
<path d="M18.7845 29.492C18.7845 29.492 16.3085 25.901 16.3905 25.119C16.5445 23.662 12.2645 23 12.2645 23C12.2645 23 9.66653 24.212 8.60653 24.212C8.34453 24.212 7.59753 24.025 7.32953 24C6.79553 23.948 5.95653 26 5.35553 26C5.05953 26 3.38153 26 3.38153 26C3.38153 26 2.21753 26.229 1.08353 28.25C0.921534 28.899 1.25853 30.33 1.25853 30.33C1.25853 30.33 1.76053 31.644 1.46653 32.246C1.17853 32.836 0.630534 33.465 0.419534 33.91C-0.566466 36 0.470534 35.603 0.652534 36.467C0.776534 37.056 0.666534 37.878 0.596534 38.287C0.584534 38.355 1.05853 40.598 2.40153 40.85C2.83553 40.93 13.0005 37 13.0005 37L18.7845 29.492Z" fill="#FFD54F"/>
<path d="M15.0014 9.66805C14.9834 9.20805 15.6464 7.95805 15.6464 7.95805C15.6464 7.95805 17.3434 7.07905 17.9884 6.64005C18.6814 6.27705 19.9804 5.96705 21.9344 6.00305C22.3824 6.97805 21.2934 7.83605 22.2944 8.68405C22.7724 9.08105 23.0004 9.74805 23.0004 9.74805C23.0004 9.74805 22.3774 10.5881 22.3514 11.0571C22.3204 11.4961 22.8474 11.7751 22.8474 12.1421C22.8514 12.7881 21.5134 13.1431 21.5134 13.1431L19.3284 14.7391C19.3284 14.7391 18.5324 16.0451 17.5144 15.9991C15.4524 15.8981 16.1804 12.2791 16.1804 12.2791C16.1804 12.2791 15.0274 10.6011 15.0014 9.66805ZM26.0014 5.96305C25.9884 5.67005 26.4944 4.87305 26.4944 4.87305C26.4944 4.87305 27.7914 4.31205 28.2854 4.03205C28.8154 3.80005 29.3144 4.90505 30.0794 5.44605C31.0994 5.44605 31.6424 6.55005 31.6224 6.84905C31.5974 7.12805 32.0004 7.30605 32.0004 7.54005C32.0034 7.95205 30.9804 8.17805 30.9804 8.17805L29.3094 9.19605C29.3094 9.19605 28.7014 10.0291 27.9224 9.99905C27.0204 9.08905 26.0214 6.55805 26.0014 5.96305ZM24.0004 16.0001C23.9894 15.7551 24.0004 15.0001 24.0004 15.0001C24.0004 15.0001 25.5894 14.2331 26.0004 14.0001C26.4424 13.8071 28.0004 16.0001 29.0004 16.0001C28.9804 16.2331 29.0004 16.7551 29.0004 16.9501C29.0034 17.2931 28.0004 18.0001 28.0004 18.0001C28.0004 18.0001 28.0004 19.0001 25.6024 18.9991C25.2434 18.6381 25.2984 17.5681 25.0004 17.0001C24.6734 16.3771 24.0094 16.2601 24.0004 16.0001ZM3.01444 34.4051C3.19444 34.0801 3.86444 32.7061 4.58444 33.0571C5.10144 33.3091 4.85844 33.8601 5.59844 33.9411C5.94344 33.9791 6.89344 34.4851 7.00044 34.8951C7.05744 35.1151 6.76544 35.5391 6.62844 35.7251C6.39744 36.0471 6.05044 36.7901 6.05044 36.7901C6.05044 36.7901 4.14944 37.2641 4.14944 36.7901C4.14944 35.8421 2.85044 34.7071 3.01444 34.4051ZM7.30444 29.7081C7.30444 29.7081 6.94344 28.9881 7.00744 28.7461C7.11644 28.3491 7.75944 28.1621 7.96644 27.7801C8.19344 27.3691 9.03944 25.6281 9.94944 26.0721C10.6024 26.3921 10.2954 27.0891 11.2304 27.1921C11.6654 27.2401 12.0664 27.4781 12.0664 27.4781L12.1994 28.2601C12.1994 28.2601 12.7774 28.4471 12.9264 28.6161C13.1834 28.9101 12.7044 29.2151 12.5304 29.4501C12.2384 29.8581 11.8724 30.7981 11.8724 30.7981C11.8724 30.7981 11.7044 31.7231 11.0864 31.9921C10.9974 32.1181 8.81744 30.6741 8.81744 30.6741L7.30444 29.7081Z" fill="#FAB13B"/>
<path d="M18.7844 29.4919C18.7844 29.4919 16.1284 31.8479 15.3904 32.1189C13.0004 32.9999 13.9564 34.9999 13.3554 34.9999C13.0594 34.9999 11.3814 36.9999 11.3814 36.9999C11.3814 36.9999 8.52744 36.2569 7.39344 38.2779C7.23144 38.9269 4.76144 38.6449 4.46644 39.2469C4.17844 39.8369 0.665436 37.8779 0.595436 38.2869C0.583436 38.3549 1.05744 40.5979 2.40044 40.8499C2.83544 40.9299 3.72344 41.0829 3.72344 41.0829L4.95344 41.2749L5.46044 41.6329C5.80144 41.8709 6.20744 41.9999 6.62244 41.9999H9.34144C9.77244 41.9999 10.1954 41.8839 10.5664 41.6649L11.9354 40.8539L14.9364 40.3779C14.9364 40.3779 16.4214 39.9449 16.8754 39.1639C17.3784 38.3059 19.0004 35.0519 19.0004 35.0519L18.7844 29.4919Z" fill="#FAB13B"/>
<path d="M113.799 0L110.728 1.313C110.728 1.313 107.269 2.169 105.405 2.169C104.945 2.169 104.477 2.143 104.005 2.099C103.065 2.007 102.058 2.083 101 2.083C100.479 2.083 99.4895 2.183 99.4895 2.183C99.4895 2.183 94.0725 5.759 92.0775 9.375C91.7925 10.537 92.3855 13.097 92.3855 13.097C92.3855 13.097 93.3585 15.469 92.8415 16.546C92.3365 17.601 91.0005 19.523 91.0005 19.523C91.0005 19.523 91.0885 22.552 91.4075 24.098C91.7085 25.552 91.2245 27.813 91.2245 27.813C91.2245 27.813 92.1185 29.548 94.4855 29.998C95.2505 30.142 117.979 22.924 117.827 21.567C117.675 20.206 116.865 0.815 114.758 0.243C114.446 0.07 113.799 0 113.799 0Z" fill="#B0BEC5"/>
<path d="M123.346 15.812L124 13.307L123.315 11.617L122.55 10.728L122.974 8.729L120.77 6.371C120.77 6.371 118.959 5.19 119.103 3.792C119.373 1.184 114.997 0.118 114.997 0.118C114.997 0.118 113.966 0.041 113.799 0C115.66 1.026 116.249 6.345 116.249 6.345L116.125 8.5L116.348 10.599C116.502 10.636 115.84 13.55 116.127 15.262C116.406 16.925 114.951 18.944 114.951 18.944C114.951 18.944 107.992 21.563 108.007 23.194C108.015 24.076 108.296 24.426 107.714 25.153C107.261 25.717 105.694 26.57 105.694 26.57L104.332 25.994L102.578 26.337C102.578 26.337 102.461 26.394 102.259 26.488C101.579 25.439 101.03 24.47 100.9 24.07C100.95 21.72 97.6805 20.449 95.6105 20.129L95.1605 20.059L94.7505 20.249C93.5605 20.809 92.0005 21.71 91.6605 21.71C91.5305 21.7 91.3405 21.66 91.1505 21.62C91.1405 21.62 91.1205 21.62 91.1105 21.61C91.1805 22.47 91.2705 23.42 91.4105 24.1C91.4505 24.29 91.4805 24.49 91.4905 24.7C91.5305 24.71 91.5705 24.71 91.6105 24.71C92.6905 24.71 94.5105 23.98 95.4605 23.56C96.4605 23.75 97.4805 24.09 97.8905 24.36C97.9505 24.839 98.2405 25.739 99.4475 27.675C97.0725 28.582 94.0135 29.488 92.7585 28.728C92.1045 28.333 91.6895 27.88 91.3165 27.316C91.2865 27.5 91.2555 27.607 91.2285 27.813C90.9245 30.156 92.1185 31.491 94.4855 31.941C95.2505 32.085 96.8145 32.358 96.8145 32.358L98.9795 32.701L100.375 33.992L100.79 34L101.112 33.937L103.48 33.47L108.746 32.432L110.998 32H116.083C116.083 32 119.16 30.322 119.959 28.924C120.842 27.389 123.737 25.532 123.737 25.532L124 21.61C124 21.61 123.448 19.658 122.855 18.496C122.17 17.165 123.346 15.812 123.346 15.812Z" fill="#546E7A"/>
<path d="M100.785 29.492C100.785 29.492 98.3085 25.901 98.3905 25.119C98.5445 23.662 94.2645 23 94.2645 23C94.2645 23 91.6665 24.212 90.6065 24.212C90.3445 24.212 89.5975 24.025 89.3295 24C88.7955 23.948 87.9565 26 87.3555 26C87.0595 26 85.3815 26 85.3815 26C85.3815 26 84.2175 26.229 83.0835 28.25C82.9215 28.899 83.2585 30.33 83.2585 30.33C83.2585 30.33 83.7605 31.644 83.4665 32.246C83.1785 32.836 82.6305 33.465 82.4195 33.91C81.4335 36 82.4705 35.603 82.6525 36.467C82.7765 37.056 82.6665 37.878 82.5965 38.287C82.5845 38.355 83.0585 40.598 84.4015 40.85C84.8355 40.93 95.0005 37 95.0005 37L100.785 29.492Z" fill="#B0BEC5"/>
<path d="M97.0014 9.66805C96.9834 9.20805 97.6464 7.95805 97.6464 7.95805C97.6464 7.95805 99.3434 7.07905 99.9884 6.64005C100.681 6.27705 101.98 5.96705 103.934 6.00305C104.382 6.97805 103.293 7.83605 104.294 8.68405C104.772 9.08105 105 9.74805 105 9.74805C105 9.74805 104.377 10.5881 104.351 11.0571C104.32 11.4961 104.847 11.7751 104.847 12.1421C104.851 12.7881 103.513 13.1431 103.513 13.1431L101.328 14.7391C101.328 14.7391 100.532 16.0451 99.5144 15.9991C97.4524 15.8981 98.1804 12.2791 98.1804 12.2791C98.1804 12.2791 97.0274 10.6011 97.0014 9.66805ZM108.001 5.96305C107.988 5.67005 108.494 4.87305 108.494 4.87305C108.494 4.87305 109.791 4.31205 110.285 4.03205C110.815 3.80005 111.314 4.90505 112.079 5.44605C113.099 5.44605 113.642 6.55005 113.622 6.84905C113.597 7.12805 114 7.30605 114 7.54005C114.003 7.95205 112.98 8.17805 112.98 8.17805L111.309 9.19605C111.309 9.19605 110.701 10.0291 109.922 9.99905C109.02 9.08905 108.021 6.55805 108.001 5.96305ZM106 16.0001C105.989 15.7551 106 15.0001 106 15.0001C106 15.0001 107.589 14.2331 108 14.0001C108.442 13.8071 110 16.0001 111 16.0001C110.98 16.2331 111 16.7551 111 16.9501C111.003 17.2931 110 18.0001 110 18.0001C110 18.0001 110 19.0001 107.602 18.9991C107.243 18.6381 107.298 17.5681 107 17.0001C106.673 16.3771 106.009 16.2601 106 16.0001ZM85.0144 34.4051C85.1944 34.0801 85.8644 32.7061 86.5844 33.0571C87.1014 33.3091 86.8584 33.8601 87.5984 33.9411C87.9434 33.9791 88.8934 34.4851 89.0004 34.8951C89.0574 35.1151 88.7654 35.5391 88.6284 35.7251C88.3974 36.0471 88.0504 36.7901 88.0504 36.7901C88.0504 36.7901 86.1494 37.2641 86.1494 36.7901C86.1494 35.8421 84.8504 34.7071 85.0144 34.4051ZM89.3044 29.7081C89.3044 29.7081 88.9434 28.9881 89.0074 28.7461C89.1164 28.3491 89.7594 28.1621 89.9664 27.7801C90.1934 27.3691 91.0394 25.6281 91.9494 26.0721C92.6024 26.3921 92.2954 27.0891 93.2304 27.1921C93.6654 27.2401 94.0664 27.4781 94.0664 27.4781L94.1994 28.2601C94.1994 28.2601 94.7774 28.4471 94.9264 28.6161C95.1834 28.9101 94.7044 29.2151 94.5304 29.4501C94.2384 29.8581 93.8724 30.7981 93.8724 30.7981C93.8724 30.7981 93.7044 31.7231 93.0864 31.9921C92.9974 32.1181 90.8174 30.6741 90.8174 30.6741L89.3044 29.7081Z" fill="#657C87"/>
<path d="M100.784 29.4919C100.784 29.4919 98.1284 31.8479 97.3904 32.1189C95.0004 32.9999 95.9564 34.9999 95.3554 34.9999C95.0594 34.9999 93.3814 36.9999 93.3814 36.9999C93.3814 36.9999 90.5274 36.2569 89.3934 38.2779C89.2314 38.9269 86.7614 38.6449 86.4664 39.2469C86.1784 39.8369 82.6654 37.8779 82.5954 38.2869C82.5834 38.3549 83.0574 40.5979 84.4004 40.8499C84.8354 40.9299 85.7234 41.0829 85.7234 41.0829L86.9534 41.2749L87.4604 41.6329C87.8014 41.8709 88.2074 41.9999 88.6224 41.9999H91.3414C91.7724 41.9999 92.1954 41.8839 92.5664 41.6649L93.9354 40.8539L96.9364 40.3779C96.9364 40.3779 98.4214 39.9449 98.8754 39.1639C99.3784 38.3059 101 35.0519 101 35.0519L100.784 29.4919Z" fill="#657C87"/>
<path d="M197.799 0L194.728 1.313C194.728 1.313 191.269 2.169 189.405 2.169C188.945 2.169 188.477 2.143 188.005 2.099C187.065 2.007 186.058 2.083 185 2.083C184.479 2.083 183.489 2.183 183.489 2.183C183.489 2.183 178.072 5.759 176.077 9.375C175.792 10.537 176.385 13.097 176.385 13.097C176.385 13.097 177.358 15.469 176.841 16.546C176.336 17.601 175 19.523 175 19.523C175 19.523 175.088 22.552 175.407 24.098C175.708 25.552 175.224 27.813 175.224 27.813C175.224 27.813 176.118 29.548 178.485 29.998C179.25 30.142 201.979 22.924 201.827 21.567C201.675 20.206 200.865 0.815 198.758 0.243C198.446 0.07 197.799 0 197.799 0Z" fill="#FFD54F"/>
<path d="M207.346 15.812L208 13.307L207.315 11.617L206.55 10.728L206.974 8.729L204.77 6.371C204.77 6.371 202.959 5.19 203.103 3.792C203.373 1.184 198.997 0.118 198.997 0.118C198.997 0.118 197.966 0.041 197.799 0C199.66 1.026 200.249 6.345 200.249 6.345L200.125 8.5L200.348 10.599C200.502 10.636 199.84 13.55 200.127 15.262C200.406 16.925 198.951 18.944 198.951 18.944C198.951 18.944 191.992 21.563 192.007 23.194C192.015 24.076 192.296 24.426 191.714 25.153C191.261 25.717 189.694 26.57 189.694 26.57L188.332 25.994L186.578 26.337C186.578 26.337 186.461 26.394 186.259 26.488C185.579 25.439 185.03 24.47 184.9 24.07C184.95 21.72 181.68 20.449 179.61 20.129L179.16 20.059L178.75 20.249C177.56 20.809 176 21.71 175.66 21.71C175.53 21.7 175.34 21.66 175.15 21.62C175.14 21.62 175.12 21.62 175.11 21.61C175.18 22.47 175.27 23.42 175.41 24.1C175.45 24.29 175.48 24.49 175.49 24.7C175.53 24.71 175.57 24.71 175.61 24.71C176.69 24.71 178.51 23.98 179.46 23.56C180.46 23.75 181.48 24.09 181.89 24.36C181.95 24.839 182.24 25.739 183.447 27.675C181.072 28.582 178.013 29.488 176.758 28.728C176.104 28.333 175.689 27.88 175.316 27.316C175.286 27.5 175.255 27.607 175.228 27.813C174.924 30.156 176.118 31.491 178.485 31.941C179.25 32.085 180.814 32.358 180.814 32.358L182.979 32.701L184.375 33.992L184.79 34L185.112 33.937L187.48 33.47L192.746 32.432L194.998 32H200.083C200.083 32 203.16 30.322 203.959 28.924C204.842 27.389 207.737 25.532 207.737 25.532L208 21.61C208 21.61 207.448 19.658 206.855 18.496C206.17 17.165 207.346 15.812 207.346 15.812Z" fill="#F9A825"/>
<path d="M184.785 29.492C184.785 29.492 182.309 25.901 182.391 25.119C182.545 23.662 178.265 23 178.265 23C178.265 23 175.667 24.212 174.607 24.212C174.345 24.212 173.598 24.025 173.33 24C172.796 23.948 171.957 26 171.356 26C171.06 26 169.382 26 169.382 26C169.382 26 168.218 26.229 167.084 28.25C166.922 28.899 167.259 30.33 167.259 30.33C167.259 30.33 167.761 31.644 167.467 32.246C167.179 32.836 166.631 33.465 166.42 33.91C165.434 36 166.471 35.603 166.653 36.467C166.777 37.056 166.667 37.878 166.597 38.287C166.585 38.355 167.059 40.598 168.402 40.85C168.836 40.93 179.001 37 179.001 37L184.785 29.492Z" fill="#FFD54F"/>
<path d="M181.001 9.66805C180.983 9.20805 181.646 7.95805 181.646 7.95805C181.646 7.95805 183.343 7.07905 183.988 6.64005C184.681 6.27705 185.98 5.96705 187.934 6.00305C188.382 6.97805 187.293 7.83605 188.294 8.68405C188.772 9.08105 189 9.74805 189 9.74805C189 9.74805 188.377 10.5881 188.351 11.0571C188.32 11.4961 188.847 11.7751 188.847 12.1421C188.851 12.7881 187.513 13.1431 187.513 13.1431L185.328 14.7391C185.328 14.7391 184.532 16.0451 183.514 15.9991C181.452 15.8981 182.18 12.2791 182.18 12.2791C182.18 12.2791 181.027 10.6011 181.001 9.66805ZM192.001 5.96305C191.988 5.67005 192.494 4.87305 192.494 4.87305C192.494 4.87305 193.791 4.31205 194.285 4.03205C194.815 3.80005 195.314 4.90505 196.079 5.44605C197.099 5.44605 197.642 6.55005 197.622 6.84905C197.597 7.12805 198 7.30605 198 7.54005C198.003 7.95205 196.98 8.17805 196.98 8.17805L195.309 9.19605C195.309 9.19605 194.701 10.0291 193.922 9.99905C193.02 9.08905 192.021 6.55805 192.001 5.96305ZM190 16.0001C189.989 15.7551 190 15.0001 190 15.0001C190 15.0001 191.589 14.2331 192 14.0001C192.442 13.8071 194 16.0001 195 16.0001C194.98 16.2331 195 16.7551 195 16.9501C195.003 17.2931 194 18.0001 194 18.0001C194 18.0001 194 19.0001 191.602 18.9991C191.243 18.6381 191.298 17.5681 191 17.0001C190.673 16.3771 190.009 16.2601 190 16.0001ZM169.014 34.4051C169.194 34.0801 169.864 32.7061 170.584 33.0571C171.101 33.3091 170.858 33.8601 171.598 33.9411C171.943 33.9791 172.893 34.4851 173 34.8951C173.057 35.1151 172.765 35.5391 172.628 35.7251C172.397 36.0471 172.05 36.7901 172.05 36.7901C172.05 36.7901 170.149 37.2641 170.149 36.7901C170.149 35.8421 168.85 34.7071 169.014 34.4051ZM173.304 29.7081C173.304 29.7081 172.943 28.9881 173.007 28.7461C173.116 28.3491 173.759 28.1621 173.966 27.7801C174.193 27.3691 175.039 25.6281 175.949 26.0721C176.602 26.3921 176.295 27.0891 177.23 27.1921C177.665 27.2401 178.066 27.4781 178.066 27.4781L178.199 28.2601C178.199 28.2601 178.777 28.4471 178.926 28.6161C179.183 28.9101 178.704 29.2151 178.53 29.4501C178.238 29.8581 177.872 30.7981 177.872 30.7981C177.872 30.7981 177.704 31.7231 177.086 31.9921C176.997 32.1181 174.817 30.6741 174.817 30.6741L173.304 29.7081Z" fill="#FAB13B"/>
<path d="M184.784 29.4919C184.784 29.4919 182.128 31.8479 181.39 32.1189C179 32.9999 179.956 34.9999 179.355 34.9999C179.059 34.9999 177.381 36.9999 177.381 36.9999C177.381 36.9999 174.527 36.2569 173.393 38.2779C173.231 38.9269 170.761 38.6449 170.466 39.2469C170.178 39.8369 166.665 37.8779 166.595 38.2869C166.583 38.3549 167.057 40.5979 168.4 40.8499C168.835 40.9299 169.723 41.0829 169.723 41.0829L170.953 41.2749L171.46 41.6329C171.801 41.8709 172.207 41.9999 172.622 41.9999H175.341C175.772 41.9999 176.195 41.8839 176.566 41.6649L177.935 40.8539L180.936 40.3779C180.936 40.3779 182.421 39.9449 182.875 39.1639C183.378 38.3059 185 35.0519 185 35.0519L184.784 29.4919Z" fill="#FAB13B"/>
<path d="M279.799 0L276.728 1.313C276.728 1.313 273.269 2.169 271.405 2.169C270.945 2.169 270.477 2.143 270.005 2.099C269.065 2.007 268.058 2.083 267 2.083C266.479 2.083 265.489 2.183 265.489 2.183C265.489 2.183 260.072 5.759 258.077 9.375C257.792 10.537 258.385 13.097 258.385 13.097C258.385 13.097 259.358 15.469 258.841 16.546C258.336 17.601 257 19.523 257 19.523C257 19.523 257.088 22.552 257.407 24.098C257.708 25.552 257.224 27.813 257.224 27.813C257.224 27.813 258.118 29.548 260.485 29.998C261.25 30.142 283.979 22.924 283.827 21.567C283.675 20.206 282.865 0.815 280.758 0.243C280.446 0.07 279.799 0 279.799 0Z" fill="#B0BEC5"/>
<path d="M289.346 15.812L290 13.307L289.315 11.617L288.55 10.728L288.974 8.729L286.77 6.371C286.77 6.371 284.959 5.19 285.103 3.792C285.373 1.184 280.997 0.118 280.997 0.118C280.997 0.118 279.966 0.041 279.799 0C281.66 1.026 282.249 6.345 282.249 6.345L282.125 8.5L282.348 10.599C282.502 10.636 281.84 13.55 282.127 15.262C282.406 16.925 280.951 18.944 280.951 18.944C280.951 18.944 273.992 21.563 274.007 23.194C274.015 24.076 274.296 24.426 273.714 25.153C273.261 25.717 271.694 26.57 271.694 26.57L270.332 25.994L268.578 26.337C268.578 26.337 268.461 26.394 268.259 26.488C267.579 25.439 267.03 24.47 266.9 24.07C266.95 21.72 263.68 20.449 261.61 20.129L261.16 20.059L260.75 20.249C259.56 20.809 258 21.71 257.66 21.71C257.53 21.7 257.34 21.66 257.15 21.62C257.14 21.62 257.12 21.62 257.11 21.61C257.18 22.47 257.27 23.42 257.41 24.1C257.45 24.29 257.48 24.49 257.49 24.7C257.53 24.71 257.57 24.71 257.61 24.71C258.69 24.71 260.51 23.98 261.46 23.56C262.46 23.75 263.48 24.09 263.89 24.36C263.95 24.839 264.24 25.739 265.447 27.675C263.072 28.582 260.013 29.488 258.758 28.728C258.104 28.333 257.689 27.88 257.316 27.316C257.286 27.5 257.255 27.607 257.228 27.813C256.924 30.156 258.118 31.491 260.485 31.941C261.25 32.085 262.814 32.358 262.814 32.358L264.979 32.701L266.375 33.992L266.79 34L267.112 33.937L269.48 33.47L274.746 32.432L276.998 32H282.083C282.083 32 285.16 30.322 285.959 28.924C286.842 27.389 289.737 25.532 289.737 25.532L290 21.61C290 21.61 289.448 19.658 288.855 18.496C288.17 17.165 289.346 15.812 289.346 15.812Z" fill="#546E7A"/>
<path d="M266.785 29.492C266.785 29.492 264.309 25.901 264.391 25.119C264.545 23.662 260.265 23 260.265 23C260.265 23 257.667 24.212 256.607 24.212C256.345 24.212 255.598 24.025 255.33 24C254.796 23.948 253.957 26 253.356 26C253.06 26 251.382 26 251.382 26C251.382 26 250.218 26.229 249.084 28.25C248.922 28.899 249.259 30.33 249.259 30.33C249.259 30.33 249.761 31.644 249.467 32.246C249.179 32.836 248.631 33.465 248.42 33.91C247.434 36 248.471 35.603 248.653 36.467C248.777 37.056 248.667 37.878 248.597 38.287C248.585 38.355 249.059 40.598 250.402 40.85C250.836 40.93 261.001 37 261.001 37L266.785 29.492Z" fill="#B0BEC5"/>
<path d="M263.001 9.66805C262.983 9.20805 263.646 7.95805 263.646 7.95805C263.646 7.95805 265.343 7.07905 265.988 6.64005C266.681 6.27705 267.98 5.96705 269.934 6.00305C270.382 6.97805 269.293 7.83605 270.294 8.68405C270.772 9.08105 271 9.74805 271 9.74805C271 9.74805 270.377 10.5881 270.351 11.0571C270.32 11.4961 270.847 11.7751 270.847 12.1421C270.851 12.7881 269.513 13.1431 269.513 13.1431L267.328 14.7391C267.328 14.7391 266.532 16.0451 265.514 15.9991C263.452 15.8981 264.18 12.2791 264.18 12.2791C264.18 12.2791 263.027 10.6011 263.001 9.66805ZM274.001 5.96305C273.988 5.67005 274.494 4.87305 274.494 4.87305C274.494 4.87305 275.791 4.31205 276.285 4.03205C276.815 3.80005 277.314 4.90505 278.079 5.44605C279.099 5.44605 279.642 6.55005 279.622 6.84905C279.597 7.12805 280 7.30605 280 7.54005C280.003 7.95205 278.98 8.17805 278.98 8.17805L277.309 9.19605C277.309 9.19605 276.701 10.0291 275.922 9.99905C275.02 9.08905 274.021 6.55805 274.001 5.96305ZM272 16.0001C271.989 15.7551 272 15.0001 272 15.0001C272 15.0001 273.589 14.2331 274 14.0001C274.442 13.8071 276 16.0001 277 16.0001C276.98 16.2331 277 16.7551 277 16.9501C277.003 17.2931 276 18.0001 276 18.0001C276 18.0001 276 19.0001 273.602 18.9991C273.243 18.6381 273.298 17.5681 273 17.0001C272.673 16.3771 272.009 16.2601 272 16.0001ZM251.014 34.4051C251.194 34.0801 251.864 32.7061 252.584 33.0571C253.101 33.3091 252.858 33.8601 253.598 33.9411C253.943 33.9791 254.893 34.4851 255 34.8951C255.057 35.1151 254.765 35.5391 254.628 35.7251C254.397 36.0471 254.05 36.7901 254.05 36.7901C254.05 36.7901 252.149 37.2641 252.149 36.7901C252.149 35.8421 250.85 34.7071 251.014 34.4051ZM255.304 29.7081C255.304 29.7081 254.943 28.9881 255.007 28.7461C255.116 28.3491 255.759 28.1621 255.966 27.7801C256.193 27.3691 257.039 25.6281 257.949 26.0721C258.602 26.3921 258.295 27.0891 259.23 27.1921C259.665 27.2401 260.066 27.4781 260.066 27.4781L260.199 28.2601C260.199 28.2601 260.777 28.4471 260.926 28.6161C261.183 28.9101 260.704 29.2151 260.53 29.4501C260.238 29.8581 259.872 30.7981 259.872 30.7981C259.872 30.7981 259.704 31.7231 259.086 31.9921C258.997 32.1181 256.817 30.6741 256.817 30.6741L255.304 29.7081Z" fill="#657C87"/>
<path d="M266.784 29.4919C266.784 29.4919 264.128 31.8479 263.39 32.1189C261 32.9999 261.956 34.9999 261.355 34.9999C261.059 34.9999 259.381 36.9999 259.381 36.9999C259.381 36.9999 256.527 36.2569 255.393 38.2779C255.231 38.9269 252.761 38.6449 252.466 39.2469C252.178 39.8369 248.665 37.8779 248.595 38.2869C248.583 38.3549 249.057 40.5979 250.4 40.8499C250.835 40.9299 251.723 41.0829 251.723 41.0829L252.953 41.2749L253.46 41.6329C253.801 41.8709 254.207 41.9999 254.622 41.9999H257.341C257.772 41.9999 258.195 41.8839 258.566 41.6649L259.935 40.8539L262.936 40.3779C262.936 40.3779 264.421 39.9449 264.875 39.1639C265.378 38.3059 267 35.0519 267 35.0519L266.784 29.4919Z" fill="#657C87"/>
<path d="M365.799 0L362.728 1.313C362.728 1.313 359.269 2.169 357.405 2.169C356.945 2.169 356.477 2.143 356.005 2.099C355.065 2.007 354.058 2.083 353 2.083C352.479 2.083 351.489 2.183 351.489 2.183C351.489 2.183 346.072 5.759 344.077 9.375C343.792 10.537 344.385 13.097 344.385 13.097C344.385 13.097 345.358 15.469 344.841 16.546C344.336 17.601 343 19.523 343 19.523C343 19.523 343.088 22.552 343.407 24.098C343.708 25.552 343.224 27.813 343.224 27.813C343.224 27.813 344.118 29.548 346.485 29.998C347.25 30.142 369.979 22.924 369.827 21.567C369.675 20.206 368.865 0.815 366.758 0.243C366.446 0.07 365.799 0 365.799 0Z" fill="#FFD54F"/>
<path d="M375.346 15.812L376 13.307L375.315 11.617L374.55 10.728L374.974 8.729L372.77 6.371C372.77 6.371 370.959 5.19 371.103 3.792C371.373 1.184 366.997 0.118 366.997 0.118C366.997 0.118 365.966 0.041 365.799 0C367.66 1.026 368.249 6.345 368.249 6.345L368.125 8.5L368.348 10.599C368.502 10.636 367.84 13.55 368.127 15.262C368.406 16.925 366.951 18.944 366.951 18.944C366.951 18.944 359.992 21.563 360.007 23.194C360.015 24.076 360.296 24.426 359.714 25.153C359.261 25.717 357.694 26.57 357.694 26.57L356.332 25.994L354.578 26.337C354.578 26.337 354.461 26.394 354.259 26.488C353.579 25.439 353.03 24.47 352.9 24.07C352.95 21.72 349.68 20.449 347.61 20.129L347.16 20.059L346.75 20.249C345.56 20.809 344 21.71 343.66 21.71C343.53 21.7 343.34 21.66 343.15 21.62C343.14 21.62 343.12 21.62 343.11 21.61C343.18 22.47 343.27 23.42 343.41 24.1C343.45 24.29 343.48 24.49 343.49 24.7C343.53 24.71 343.57 24.71 343.61 24.71C344.69 24.71 346.51 23.98 347.46 23.56C348.46 23.75 349.48 24.09 349.89 24.36C349.95 24.839 350.24 25.739 351.447 27.675C349.072 28.582 346.013 29.488 344.758 28.728C344.104 28.333 343.689 27.88 343.316 27.316C343.286 27.5 343.255 27.607 343.228 27.813C342.924 30.156 344.118 31.491 346.485 31.941C347.25 32.085 348.814 32.358 348.814 32.358L350.979 32.701L352.375 33.992L352.79 34L353.112 33.937L355.48 33.47L360.746 32.432L362.998 32H368.083C368.083 32 371.16 30.322 371.959 28.924C372.842 27.389 375.737 25.532 375.737 25.532L376 21.61C376 21.61 375.448 19.658 374.855 18.496C374.17 17.165 375.346 15.812 375.346 15.812Z" fill="#F9A825"/>
<path d="M352.785 29.492C352.785 29.492 350.309 25.901 350.391 25.119C350.545 23.662 346.265 23 346.265 23C346.265 23 343.667 24.212 342.607 24.212C342.345 24.212 341.598 24.025 341.33 24C340.796 23.948 339.957 26 339.356 26C339.06 26 337.382 26 337.382 26C337.382 26 336.218 26.229 335.084 28.25C334.922 28.899 335.259 30.33 335.259 30.33C335.259 30.33 335.761 31.644 335.467 32.246C335.179 32.836 334.631 33.465 334.42 33.91C333.434 36 334.471 35.603 334.653 36.467C334.777 37.056 334.667 37.878 334.597 38.287C334.585 38.355 335.059 40.598 336.402 40.85C336.836 40.93 347.001 37 347.001 37L352.785 29.492Z" fill="#FFD54F"/>
<path d="M349.001 9.66805C348.983 9.20805 349.646 7.95805 349.646 7.95805C349.646 7.95805 351.343 7.07905 351.988 6.64005C352.681 6.27705 353.98 5.96705 355.934 6.00305C356.382 6.97805 355.293 7.83605 356.294 8.68405C356.772 9.08105 357 9.74805 357 9.74805C357 9.74805 356.377 10.5881 356.351 11.0571C356.32 11.4961 356.847 11.7751 356.847 12.1421C356.851 12.7881 355.513 13.1431 355.513 13.1431L353.328 14.7391C353.328 14.7391 352.532 16.0451 351.514 15.9991C349.452 15.8981 350.18 12.2791 350.18 12.2791C350.18 12.2791 349.027 10.6011 349.001 9.66805ZM360.001 5.96305C359.988 5.67005 360.494 4.87305 360.494 4.87305C360.494 4.87305 361.791 4.31205 362.285 4.03205C362.815 3.80005 363.314 4.90505 364.079 5.44605C365.099 5.44605 365.642 6.55005 365.622 6.84905C365.597 7.12805 366 7.30605 366 7.54005C366.003 7.95205 364.98 8.17805 364.98 8.17805L363.309 9.19605C363.309 9.19605 362.701 10.0291 361.922 9.99905C361.02 9.08905 360.021 6.55805 360.001 5.96305ZM358 16.0001C357.989 15.7551 358 15.0001 358 15.0001C358 15.0001 359.589 14.2331 360 14.0001C360.442 13.8071 362 16.0001 363 16.0001C362.98 16.2331 363 16.7551 363 16.9501C363.003 17.2931 362 18.0001 362 18.0001C362 18.0001 362 19.0001 359.602 18.9991C359.243 18.6381 359.298 17.5681 359 17.0001C358.673 16.3771 358.009 16.2601 358 16.0001ZM337.014 34.4051C337.194 34.0801 337.864 32.7061 338.584 33.0571C339.101 33.3091 338.858 33.8601 339.598 33.9411C339.943 33.9791 340.893 34.4851 341 34.8951C341.057 35.1151 340.765 35.5391 340.628 35.7251C340.397 36.0471 340.05 36.7901 340.05 36.7901C340.05 36.7901 338.149 37.2641 338.149 36.7901C338.149 35.8421 336.85 34.7071 337.014 34.4051ZM341.304 29.7081C341.304 29.7081 340.943 28.9881 341.007 28.7461C341.116 28.3491 341.759 28.1621 341.966 27.7801C342.193 27.3691 343.039 25.6281 343.949 26.0721C344.602 26.3921 344.295 27.0891 345.23 27.1921C345.665 27.2401 346.066 27.4781 346.066 27.4781L346.199 28.2601C346.199 28.2601 346.777 28.4471 346.926 28.6161C347.183 28.9101 346.704 29.2151 346.53 29.4501C346.238 29.8581 345.872 30.7981 345.872 30.7981C345.872 30.7981 345.704 31.7231 345.086 31.9921C344.997 32.1181 342.817 30.6741 342.817 30.6741L341.304 29.7081Z" fill="#FAB13B"/>
<path d="M352.784 29.4919C352.784 29.4919 350.128 31.8479 349.39 32.1189C347 32.9999 347.956 34.9999 347.355 34.9999C347.059 34.9999 345.381 36.9999 345.381 36.9999C345.381 36.9999 342.527 36.2569 341.393 38.2779C341.231 38.9269 338.761 38.6449 338.466 39.2469C338.178 39.8369 334.665 37.8779 334.595 38.2869C334.583 38.3549 335.057 40.5979 336.4 40.8499C336.835 40.9299 337.723 41.0829 337.723 41.0829L338.953 41.2749L339.46 41.6329C339.801 41.8709 340.207 41.9999 340.622 41.9999H343.341C343.772 41.9999 344.195 41.8839 344.566 41.6649L345.935 40.8539L348.936 40.3779C348.936 40.3779 350.421 39.9449 350.875 39.1639C351.378 38.3059 353 35.0519 353 35.0519L352.784 29.4919Z" fill="#FAB13B"/>
<path d="M447.799 0L444.728 1.313C444.728 1.313 441.269 2.169 439.405 2.169C438.945 2.169 438.477 2.143 438.005 2.099C437.065 2.007 436.058 2.083 435 2.083C434.479 2.083 433.489 2.183 433.489 2.183C433.489 2.183 428.072 5.759 426.077 9.375C425.792 10.537 426.385 13.097 426.385 13.097C426.385 13.097 427.358 15.469 426.841 16.546C426.336 17.601 425 19.523 425 19.523C425 19.523 425.088 22.552 425.407 24.098C425.708 25.552 425.224 27.813 425.224 27.813C425.224 27.813 426.118 29.548 428.485 29.998C429.25 30.142 451.979 22.924 451.827 21.567C451.675 20.206 450.865 0.815 448.758 0.243C448.446 0.07 447.799 0 447.799 0Z" fill="#B0BEC5"/>
<path d="M457.346 15.812L458 13.307L457.315 11.617L456.55 10.728L456.974 8.729L454.77 6.371C454.77 6.371 452.959 5.19 453.103 3.792C453.373 1.184 448.997 0.118 448.997 0.118C448.997 0.118 447.966 0.041 447.799 0C449.66 1.026 450.249 6.345 450.249 6.345L450.125 8.5L450.348 10.599C450.502 10.636 449.84 13.55 450.127 15.262C450.406 16.925 448.951 18.944 448.951 18.944C448.951 18.944 441.992 21.563 442.007 23.194C442.015 24.076 442.296 24.426 441.714 25.153C441.261 25.717 439.694 26.57 439.694 26.57L438.332 25.994L436.578 26.337C436.578 26.337 436.461 26.394 436.259 26.488C435.579 25.439 435.03 24.47 434.9 24.07C434.95 21.72 431.68 20.449 429.61 20.129L429.16 20.059L428.75 20.249C427.56 20.809 426 21.71 425.66 21.71C425.53 21.7 425.34 21.66 425.15 21.62C425.14 21.62 425.12 21.62 425.11 21.61C425.18 22.47 425.27 23.42 425.41 24.1C425.45 24.29 425.48 24.49 425.49 24.7C425.53 24.71 425.57 24.71 425.61 24.71C426.69 24.71 428.51 23.98 429.46 23.56C430.46 23.75 431.48 24.09 431.89 24.36C431.95 24.839 432.24 25.739 433.447 27.675C431.072 28.582 428.013 29.488 426.758 28.728C426.104 28.333 425.689 27.88 425.316 27.316C425.286 27.5 425.255 27.607 425.228 27.813C424.924 30.156 426.118 31.491 428.485 31.941C429.25 32.085 430.814 32.358 430.814 32.358L432.979 32.701L434.375 33.992L434.79 34L435.112 33.937L437.48 33.47L442.746 32.432L444.998 32H450.083C450.083 32 453.16 30.322 453.959 28.924C454.842 27.389 457.737 25.532 457.737 25.532L458 21.61C458 21.61 457.448 19.658 456.855 18.496C456.17 17.165 457.346 15.812 457.346 15.812Z" fill="#546E7A"/>
<path d="M434.785 29.492C434.785 29.492 432.309 25.901 432.391 25.119C432.545 23.662 428.265 23 428.265 23C428.265 23 425.667 24.212 424.607 24.212C424.345 24.212 423.598 24.025 423.33 24C422.796 23.948 421.957 26 421.356 26C421.06 26 419.382 26 419.382 26C419.382 26 418.218 26.229 417.084 28.25C416.922 28.899 417.259 30.33 417.259 30.33C417.259 30.33 417.761 31.644 417.467 32.246C417.179 32.836 416.631 33.465 416.42 33.91C415.434 36 416.471 35.603 416.653 36.467C416.777 37.056 416.667 37.878 416.597 38.287C416.585 38.355 417.059 40.598 418.402 40.85C418.836 40.93 429.001 37 429.001 37L434.785 29.492Z" fill="#B0BEC5"/>
<path d="M431.001 9.66805C430.983 9.20805 431.646 7.95805 431.646 7.95805C431.646 7.95805 433.343 7.07905 433.988 6.64005C434.681 6.27705 435.98 5.96705 437.934 6.00305C438.382 6.97805 437.293 7.83605 438.294 8.68405C438.772 9.08105 439 9.74805 439 9.74805C439 9.74805 438.377 10.5881 438.351 11.0571C438.32 11.4961 438.847 11.7751 438.847 12.1421C438.851 12.7881 437.513 13.1431 437.513 13.1431L435.328 14.7391C435.328 14.7391 434.532 16.0451 433.514 15.9991C431.452 15.8981 432.18 12.2791 432.18 12.2791C432.18 12.2791 431.027 10.6011 431.001 9.66805ZM442.001 5.96305C441.988 5.67005 442.494 4.87305 442.494 4.87305C442.494 4.87305 443.791 4.31205 444.285 4.03205C444.815 3.80005 445.314 4.90505 446.079 5.44605C447.099 5.44605 447.642 6.55005 447.622 6.84905C447.597 7.12805 448 7.30605 448 7.54005C448.003 7.95205 446.98 8.17805 446.98 8.17805L445.309 9.19605C445.309 9.19605 444.701 10.0291 443.922 9.99905C443.02 9.08905 442.021 6.55805 442.001 5.96305ZM440 16.0001C439.989 15.7551 440 15.0001 440 15.0001C440 15.0001 441.589 14.2331 442 14.0001C442.442 13.8071 444 16.0001 445 16.0001C444.98 16.2331 445 16.7551 445 16.9501C445.003 17.2931 444 18.0001 444 18.0001C444 18.0001 444 19.0001 441.602 18.9991C441.243 18.6381 441.298 17.5681 441 17.0001C440.673 16.3771 440.009 16.2601 440 16.0001ZM419.014 34.4051C419.194 34.0801 419.864 32.7061 420.584 33.0571C421.101 33.3091 420.858 33.8601 421.598 33.9411C421.943 33.9791 422.893 34.4851 423 34.8951C423.057 35.1151 422.765 35.5391 422.628 35.7251C422.397 36.0471 422.05 36.7901 422.05 36.7901C422.05 36.7901 420.149 37.2641 420.149 36.7901C420.149 35.8421 418.85 34.7071 419.014 34.4051ZM423.304 29.7081C423.304 29.7081 422.943 28.9881 423.007 28.7461C423.116 28.3491 423.759 28.1621 423.966 27.7801C424.193 27.3691 425.039 25.6281 425.949 26.0721C426.602 26.3921 426.295 27.0891 427.23 27.1921C427.665 27.2401 428.066 27.4781 428.066 27.4781L428.199 28.2601C428.199 28.2601 428.777 28.4471 428.926 28.6161C429.183 28.9101 428.704 29.2151 428.53 29.4501C428.238 29.8581 427.872 30.7981 427.872 30.7981C427.872 30.7981 427.704 31.7231 427.086 31.9921C426.997 32.1181 424.817 30.6741 424.817 30.6741L423.304 29.7081Z" fill="#657C87"/>
<path d="M434.784 29.4919C434.784 29.4919 432.128 31.8479 431.39 32.1189C429 32.9999 429.956 34.9999 429.355 34.9999C429.059 34.9999 427.381 36.9999 427.381 36.9999C427.381 36.9999 424.527 36.2569 423.393 38.2779C423.231 38.9269 420.761 38.6449 420.466 39.2469C420.178 39.8369 416.665 37.8779 416.595 38.2869C416.583 38.3549 417.057 40.5979 418.4 40.8499C418.835 40.9299 419.723 41.0829 419.723 41.0829L420.953 41.2749L421.46 41.6329C421.801 41.8709 422.207 41.9999 422.622 41.9999H425.341C425.772 41.9999 426.195 41.8839 426.566 41.6649L427.935 40.8539L430.936 40.3779C430.936 40.3779 432.421 39.9449 432.875 39.1639C433.378 38.3059 435 35.0519 435 35.0519L434.784 29.4919Z" fill="#657C87"/>
<path d="M554.799 0L551.728 1.313C551.728 1.313 548.269 2.169 546.405 2.169C545.945 2.169 545.477 2.143 545.005 2.099C544.065 2.007 543.058 2.083 542 2.083C541.479 2.083 540.489 2.183 540.489 2.183C540.489 2.183 535.072 5.759 533.077 9.375C532.792 10.537 533.385 13.097 533.385 13.097C533.385 13.097 534.358 15.469 533.841 16.546C533.336 17.601 532 19.523 532 19.523C532 19.523 532.088 22.552 532.407 24.098C532.708 25.552 532.224 27.813 532.224 27.813C532.224 27.813 533.118 29.548 535.485 29.998C536.25 30.142 558.979 22.924 558.827 21.567C558.675 20.206 557.865 0.815 555.758 0.243C555.446 0.07 554.799 0 554.799 0Z" fill="#FFD54F"/>
<path d="M564.346 15.812L565 13.307L564.315 11.617L563.55 10.728L563.974 8.729L561.77 6.371C561.77 6.371 559.959 5.19 560.103 3.792C560.373 1.184 555.997 0.118 555.997 0.118C555.997 0.118 554.966 0.041 554.799 0C556.66 1.026 557.249 6.345 557.249 6.345L557.125 8.5L557.348 10.599C557.502 10.636 556.84 13.55 557.127 15.262C557.406 16.925 555.951 18.944 555.951 18.944C555.951 18.944 548.992 21.563 549.007 23.194C549.015 24.076 549.296 24.426 548.714 25.153C548.261 25.717 546.694 26.57 546.694 26.57L545.332 25.994L543.578 26.337C543.578 26.337 543.461 26.394 543.259 26.488C542.579 25.439 542.03 24.47 541.9 24.07C541.95 21.72 538.68 20.449 536.61 20.129L536.16 20.059L535.75 20.249C534.56 20.809 533 21.71 532.66 21.71C532.53 21.7 532.34 21.66 532.15 21.62C532.14 21.62 532.12 21.62 532.11 21.61C532.18 22.47 532.27 23.42 532.41 24.1C532.45 24.29 532.48 24.49 532.49 24.7C532.53 24.71 532.57 24.71 532.61 24.71C533.69 24.71 535.51 23.98 536.46 23.56C537.46 23.75 538.48 24.09 538.89 24.36C538.95 24.839 539.24 25.739 540.447 27.675C538.072 28.582 535.013 29.488 533.758 28.728C533.104 28.333 532.689 27.88 532.316 27.316C532.286 27.5 532.255 27.607 532.228 27.813C531.924 30.156 533.118 31.491 535.485 31.941C536.25 32.085 537.814 32.358 537.814 32.358L539.979 32.701L541.375 33.992L541.79 34L542.112 33.937L544.48 33.47L549.746 32.432L551.998 32H557.083C557.083 32 560.16 30.322 560.959 28.924C561.842 27.389 564.737 25.532 564.737 25.532L565 21.61C565 21.61 564.448 19.658 563.855 18.496C563.17 17.165 564.346 15.812 564.346 15.812Z" fill="#F9A825"/>
<path d="M541.785 29.492C541.785 29.492 539.309 25.901 539.391 25.119C539.545 23.662 535.265 23 535.265 23C535.265 23 532.667 24.212 531.607 24.212C531.345 24.212 530.598 24.025 530.33 24C529.796 23.948 528.957 26 528.356 26C528.06 26 526.382 26 526.382 26C526.382 26 525.218 26.229 524.084 28.25C523.922 28.899 524.259 30.33 524.259 30.33C524.259 30.33 524.761 31.644 524.467 32.246C524.179 32.836 523.631 33.465 523.42 33.91C522.434 36 523.471 35.603 523.653 36.467C523.777 37.056 523.667 37.878 523.597 38.287C523.585 38.355 524.059 40.598 525.402 40.85C525.836 40.93 536.001 37 536.001 37L541.785 29.492Z" fill="#FFD54F"/>
<path d="M538.001 9.66805C537.983 9.20805 538.646 7.95805 538.646 7.95805C538.646 7.95805 540.343 7.07905 540.988 6.64005C541.681 6.27705 542.98 5.96705 544.934 6.00305C545.382 6.97805 544.293 7.83605 545.294 8.68405C545.772 9.08105 546 9.74805 546 9.74805C546 9.74805 545.377 10.5881 545.351 11.0571C545.32 11.4961 545.847 11.7751 545.847 12.1421C545.851 12.7881 544.513 13.1431 544.513 13.1431L542.328 14.7391C542.328 14.7391 541.532 16.0451 540.514 15.9991C538.452 15.8981 539.18 12.2791 539.18 12.2791C539.18 12.2791 538.027 10.6011 538.001 9.66805ZM549.001 5.96305C548.988 5.67005 549.494 4.87305 549.494 4.87305C549.494 4.87305 550.791 4.31205 551.285 4.03205C551.815 3.80005 552.314 4.90505 553.079 5.44605C554.099 5.44605 554.642 6.55005 554.622 6.84905C554.597 7.12805 555 7.30605 555 7.54005C555.003 7.95205 553.98 8.17805 553.98 8.17805L552.309 9.19605C552.309 9.19605 551.701 10.0291 550.922 9.99905C550.02 9.08905 549.021 6.55805 549.001 5.96305ZM547 16.0001C546.989 15.7551 547 15.0001 547 15.0001C547 15.0001 548.589 14.2331 549 14.0001C549.442 13.8071 551 16.0001 552 16.0001C551.98 16.2331 552 16.7551 552 16.9501C552.003 17.2931 551 18.0001 551 18.0001C551 18.0001 551 19.0001 548.602 18.9991C548.243 18.6381 548.298 17.5681 548 17.0001C547.673 16.3771 547.009 16.2601 547 16.0001ZM526.014 34.4051C526.194 34.0801 526.864 32.7061 527.584 33.0571C528.101 33.3091 527.858 33.8601 528.598 33.9411C528.943 33.9791 529.893 34.4851 530 34.8951C530.057 35.1151 529.765 35.5391 529.628 35.7251C529.397 36.0471 529.05 36.7901 529.05 36.7901C529.05 36.7901 527.149 37.2641 527.149 36.7901C527.149 35.8421 525.85 34.7071 526.014 34.4051ZM530.304 29.7081C530.304 29.7081 529.943 28.9881 530.007 28.7461C530.116 28.3491 530.759 28.1621 530.966 27.7801C531.193 27.3691 532.039 25.6281 532.949 26.0721C533.602 26.3921 533.295 27.0891 534.23 27.1921C534.665 27.2401 535.066 27.4781 535.066 27.4781L535.199 28.2601C535.199 28.2601 535.777 28.4471 535.926 28.6161C536.183 28.9101 535.704 29.2151 535.53 29.4501C535.238 29.8581 534.872 30.7981 534.872 30.7981C534.872 30.7981 534.704 31.7231 534.086 31.9921C533.997 32.1181 531.817 30.6741 531.817 30.6741L530.304 29.7081Z" fill="#FAB13B"/>
<path d="M541.784 29.4919C541.784 29.4919 539.128 31.8479 538.39 32.1189C536 32.9999 536.956 34.9999 536.355 34.9999C536.059 34.9999 534.381 36.9999 534.381 36.9999C534.381 36.9999 531.527 36.2569 530.393 38.2779C530.231 38.9269 527.761 38.6449 527.466 39.2469C527.178 39.8369 523.665 37.8779 523.595 38.2869C523.583 38.3549 524.057 40.5979 525.4 40.8499C525.835 40.9299 526.723 41.0829 526.723 41.0829L527.953 41.2749L528.46 41.6329C528.801 41.8709 529.207 41.9999 529.622 41.9999H532.341C532.772 41.9999 533.195 41.8839 533.566 41.6649L534.935 40.8539L537.936 40.3779C537.936 40.3779 539.421 39.9449 539.875 39.1639C540.378 38.3059 542 35.0519 542 35.0519L541.784 29.4919Z" fill="#FAB13B"/>
<path d="M636.799 0L633.728 1.313C633.728 1.313 630.269 2.169 628.405 2.169C627.945 2.169 627.477 2.143 627.005 2.099C626.065 2.007 625.058 2.083 624 2.083C623.479 2.083 622.489 2.183 622.489 2.183C622.489 2.183 617.072 5.759 615.077 9.375C614.792 10.537 615.385 13.097 615.385 13.097C615.385 13.097 616.358 15.469 615.841 16.546C615.336 17.601 614 19.523 614 19.523C614 19.523 614.088 22.552 614.407 24.098C614.708 25.552 614.224 27.813 614.224 27.813C614.224 27.813 615.118 29.548 617.485 29.998C618.25 30.142 640.979 22.924 640.827 21.567C640.675 20.206 639.865 0.815 637.758 0.243C637.446 0.07 636.799 0 636.799 0Z" fill="#B0BEC5"/>
<path d="M646.346 15.812L647 13.307L646.315 11.617L645.55 10.728L645.974 8.729L643.77 6.371C643.77 6.371 641.959 5.19 642.103 3.792C642.373 1.184 637.997 0.118 637.997 0.118C637.997 0.118 636.966 0.041 636.799 0C638.66 1.026 639.249 6.345 639.249 6.345L639.125 8.5L639.348 10.599C639.502 10.636 638.84 13.55 639.127 15.262C639.406 16.925 637.951 18.944 637.951 18.944C637.951 18.944 630.992 21.563 631.007 23.194C631.015 24.076 631.296 24.426 630.714 25.153C630.261 25.717 628.694 26.57 628.694 26.57L627.332 25.994L625.578 26.337C625.578 26.337 625.461 26.394 625.259 26.488C624.579 25.439 624.03 24.47 623.9 24.07C623.95 21.72 620.68 20.449 618.61 20.129L618.16 20.059L617.75 20.249C616.56 20.809 615 21.71 614.66 21.71C614.53 21.7 614.34 21.66 614.15 21.62C614.14 21.62 614.12 21.62 614.11 21.61C614.18 22.47 614.27 23.42 614.41 24.1C614.45 24.29 614.48 24.49 614.49 24.7C614.53 24.71 614.57 24.71 614.61 24.71C615.69 24.71 617.51 23.98 618.46 23.56C619.46 23.75 620.48 24.09 620.89 24.36C620.95 24.839 621.24 25.739 622.447 27.675C620.072 28.582 617.013 29.488 615.758 28.728C615.104 28.333 614.689 27.88 614.316 27.316C614.286 27.5 614.255 27.607 614.228 27.813C613.924 30.156 615.118 31.491 617.485 31.941C618.25 32.085 619.814 32.358 619.814 32.358L621.979 32.701L623.375 33.992L623.79 34L624.112 33.937L626.48 33.47L631.746 32.432L633.998 32H639.083C639.083 32 642.16 30.322 642.959 28.924C643.842 27.389 646.737 25.532 646.737 25.532L647 21.61C647 21.61 646.448 19.658 645.855 18.496C645.17 17.165 646.346 15.812 646.346 15.812Z" fill="#546E7A"/>
<path d="M623.785 29.492C623.785 29.492 621.309 25.901 621.391 25.119C621.545 23.662 617.265 23 617.265 23C617.265 23 614.667 24.212 613.607 24.212C613.345 24.212 612.598 24.025 612.33 24C611.796 23.948 610.957 26 610.356 26C610.06 26 608.382 26 608.382 26C608.382 26 607.218 26.229 606.084 28.25C605.922 28.899 606.259 30.33 606.259 30.33C606.259 30.33 606.761 31.644 606.467 32.246C606.179 32.836 605.631 33.465 605.42 33.91C604.434 36 605.471 35.603 605.653 36.467C605.777 37.056 605.667 37.878 605.597 38.287C605.585 38.355 606.059 40.598 607.402 40.85C607.836 40.93 618.001 37 618.001 37L623.785 29.492Z" fill="#B0BEC5"/>
<path d="M620.001 9.66805C619.983 9.20805 620.646 7.95805 620.646 7.95805C620.646 7.95805 622.343 7.07905 622.988 6.64005C623.681 6.27705 624.98 5.96705 626.934 6.00305C627.382 6.97805 626.293 7.83605 627.294 8.68405C627.772 9.08105 628 9.74805 628 9.74805C628 9.74805 627.377 10.5881 627.351 11.0571C627.32 11.4961 627.847 11.7751 627.847 12.1421C627.851 12.7881 626.513 13.1431 626.513 13.1431L624.328 14.7391C624.328 14.7391 623.532 16.0451 622.514 15.9991C620.452 15.8981 621.18 12.2791 621.18 12.2791C621.18 12.2791 620.027 10.6011 620.001 9.66805ZM631.001 5.96305C630.988 5.67005 631.494 4.87305 631.494 4.87305C631.494 4.87305 632.791 4.31205 633.285 4.03205C633.815 3.80005 634.314 4.90505 635.079 5.44605C636.099 5.44605 636.642 6.55005 636.622 6.84905C636.597 7.12805 637 7.30605 637 7.54005C637.003 7.95205 635.98 8.17805 635.98 8.17805L634.309 9.19605C634.309 9.19605 633.701 10.0291 632.922 9.99905C632.02 9.08905 631.021 6.55805 631.001 5.96305ZM629 16.0001C628.989 15.7551 629 15.0001 629 15.0001C629 15.0001 630.589 14.2331 631 14.0001C631.442 13.8071 633 16.0001 634 16.0001C633.98 16.2331 634 16.7551 634 16.9501C634.003 17.2931 633 18.0001 633 18.0001C633 18.0001 633 19.0001 630.602 18.9991C630.243 18.6381 630.298 17.5681 630 17.0001C629.673 16.3771 629.009 16.2601 629 16.0001ZM608.014 34.4051C608.194 34.0801 608.864 32.7061 609.584 33.0571C610.101 33.3091 609.858 33.8601 610.598 33.9411C610.943 33.9791 611.893 34.4851 612 34.8951C612.057 35.1151 611.765 35.5391 611.628 35.7251C611.397 36.0471 611.05 36.7901 611.05 36.7901C611.05 36.7901 609.149 37.2641 609.149 36.7901C609.149 35.8421 607.85 34.7071 608.014 34.4051ZM612.304 29.7081C612.304 29.7081 611.943 28.9881 612.007 28.7461C612.116 28.3491 612.759 28.1621 612.966 27.7801C613.193 27.3691 614.039 25.6281 614.949 26.0721C615.602 26.3921 615.295 27.0891 616.23 27.1921C616.665 27.2401 617.066 27.4781 617.066 27.4781L617.199 28.2601C617.199 28.2601 617.777 28.4471 617.926 28.6161C618.183 28.9101 617.704 29.2151 617.53 29.4501C617.238 29.8581 616.872 30.7981 616.872 30.7981C616.872 30.7981 616.704 31.7231 616.086 31.9921C615.997 32.1181 613.817 30.6741 613.817 30.6741L612.304 29.7081Z" fill="#657C87"/>
<path d="M623.784 29.4919C623.784 29.4919 621.128 31.8479 620.39 32.1189C618 32.9999 618.956 34.9999 618.355 34.9999C618.059 34.9999 616.381 36.9999 616.381 36.9999C616.381 36.9999 613.527 36.2569 612.393 38.2779C612.231 38.9269 609.761 38.6449 609.466 39.2469C609.178 39.8369 605.665 37.8779 605.595 38.2869C605.583 38.3549 606.057 40.5979 607.4 40.8499C607.835 40.9299 608.723 41.0829 608.723 41.0829L609.953 41.2749L610.46 41.6329C610.801 41.8709 611.207 41.9999 611.622 41.9999H614.341C614.772 41.9999 615.195 41.8839 615.566 41.6649L616.935 40.8539L619.936 40.3779C619.936 40.3779 621.421 39.9449 621.875 39.1639C622.378 38.3059 624 35.0519 624 35.0519L623.784 29.4919Z" fill="#657C87"/>
</svg>
